HIERARCHY
ROOT hip
{
  OFFSET 0 0 0
  CHANNELS 6 Xposition Yposition Zposition Zrotation Yrotation Xrotation
  JOINT abdomen
  {
    OFFSET 0 20.6881 -0.73152
    CHANNELS 3 Zrotation Xrotation Yrotation
    JOINT chest
    {
      OFFSET 0 11.7043 -0.48768
      CHANNELS 3 Zrotation Xrotation Yrotation
      JOINT neck
      {
        OFFSET 0 22.1894 -2.19456
        CHANNELS 3 Zrotation Xrotation Yrotation
        JOINT head
        {
          OFFSET -0.24384 7.07133 1.2192
          CHANNELS 3 Zrotation Xrotation Yrotation
          JOINT leftEye
          {
            OFFSET 4.14528 8.04674 8.04672
            CHANNELS 3 Zrotation Xrotation Yrotation
            End Site
            {
              OFFSET 1 0 0
            }
          }
          JOINT rightEye
          {
            OFFSET -3.6576 8.04674 8.04672
            CHANNELS 3 Zrotation Xrotation Yrotation
            End Site
            {
              OFFSET 1 0 0
            }
          }
        }
      }
      JOINT rCollar
      {
        OFFSET -2.68224 19.2634 -4.8768
        CHANNELS 3 Zrotation Xrotation Yrotation
        JOINT rShldr
        {
          OFFSET -8.77824 -1.95073 1.46304
          CHANNELS 3 Zrotation Xrotation Yrotation
          JOINT rForeArm
          {
            OFFSET -28.1742 -1.7115 0.48768
            CHANNELS 3 Zrotation Xrotation Yrotation
            JOINT rHand
            {
              OFFSET -22.5879 0.773209 7.07136
              CHANNELS 3 Zrotation Xrotation Yrotation
              JOINT rThumb1
              {
                OFFSET -1.2192 -0.487915 3.41376
                CHANNELS 3 Zrotation Xrotation Yrotation
                JOINT rThumb2
                {
                  OFFSET -3.37035 -0.52449 3.41376
                  CHANNELS 3 Zrotation Xrotation Yrotation
                  End Site
                  {
                    OFFSET -1.78271 -1.18214 1.43049
                  }
                }
              }
              JOINT rIndex1
              {
                OFFSET -7.75947 0.938293 5.60832
                CHANNELS 3 Zrotation Xrotation Yrotation
                JOINT rIndex2
                {
                  OFFSET -2.54057 -0.884171 1.56538
                  CHANNELS 3 Zrotation Xrotation Yrotation
                  End Site
                  {
                    OFFSET -1.62519 -0.234802 1.16502
                  }
                }
              }
              JOINT rMid1
              {
                OFFSET -8.24714 1.18213 3.41376
                CHANNELS 3 Zrotation Xrotation Yrotation
                JOINT rMid2
                {
                  OFFSET -3.10165 -0.590103 1.0647
                  CHANNELS 3 Zrotation Xrotation Yrotation
                  End Site
                  {
                    OFFSET -2.48547 -0.328903 0.83742
                  }
                }
              }
              JOINT rRing1
              {
                OFFSET -8.82822 0.546677 1.51678
                CHANNELS 3 Zrotation Xrotation Yrotation
                JOINT rRing2
                {
                  OFFSET -2.60934 -0.819778 -0.0198488
                  CHANNELS 3 Zrotation Xrotation Yrotation
                  End Site
                  {
                    OFFSET -2.33842 -0.294052 0.168128
                  }
                }
              }
              JOINT rPinky1
              {
                OFFSET -8.27202 -0.0477905 -0.4584
                CHANNELS 3 Zrotation Xrotation Yrotation
                JOINT rPinky2
                {
                  OFFSET -1.82734 -0.647385 -0.700984
                  CHANNELS 3 Zrotation Xrotation Yrotation
                  End Site
                  {
                    OFFSET -1.69225 -0.51767 -0.607171
                  }
                }
              }
            }
          }
        }
      }
      JOINT lCollar
      {
        OFFSET 2.68224 19.2634 -4.8768
        CHANNELS 3 Zrotation Xrotation Yrotation
        JOINT lShldr
        {
          OFFSET 8.77824 -1.95073 1.46304
          CHANNELS 3 Zrotation Xrotation Yrotation
          JOINT lForeArm
          {
            OFFSET 28.1742 -1.7115 0.48768
            CHANNELS 3 Zrotation Xrotation Yrotation
            JOINT lHand
            {
              OFFSET 22.5879 0.773209 7.07136
              CHANNELS 3 Zrotation Xrotation Yrotation
              JOINT lThumb1
              {
                OFFSET 1.2192 -0.487915 3.41376
                CHANNELS 3 Zrotation Xrotation Yrotation
                JOINT lThumb2
                {
                  OFFSET 3.37035 -0.52449 3.41376
                  CHANNELS 3 Zrotation Xrotation Yrotation
                  End Site
                  {
                    OFFSET 1.78271 -1.18214 1.43049
                  }
                }
              }
              JOINT lIndex1
              {
                OFFSET 7.75947 0.938293 5.60832
                CHANNELS 3 Zrotation Xrotation Yrotation
                JOINT lIndex2
                {
                  OFFSET 2.54057 -0.884171 1.56538
                  CHANNELS 3 Zrotation Xrotation Yrotation
                  End Site
                  {
                    OFFSET 1.62519 -0.234802 1.16502
                  }
                }
              }
              JOINT lMid1
              {
                OFFSET 8.24714 1.18213 3.41376
                CHANNELS 3 Zrotation Xrotation Yrotation
                JOINT lMid2
                {
                  OFFSET 3.10165 -0.590103 1.0647
                  CHANNELS 3 Zrotation Xrotation Yrotation
                  End Site
                  {
                    OFFSET 2.48547 -0.328903 0.83742
                  }
                }
              }
              JOINT lRing1
              {
                OFFSET 8.82822 0.546677 1.51678
                CHANNELS 3 Zrotation Xrotation Yrotation
                JOINT lRing2
                {
                  OFFSET 2.60934 -0.819778 -0.0198488
                  CHANNELS 3 Zrotation Xrotation Yrotation
                  End Site
                  {
                    OFFSET 2.33842 -0.294052 0.168128
                  }
                }
              }
              JOINT lPinky1
              {
                OFFSET 8.27202 -0.0477905 -0.4584
                CHANNELS 3 Zrotation Xrotation Yrotation
                JOINT lPinky2
                {
                  OFFSET 1.82734 -0.647385 -0.700984
                  CHANNELS 3 Zrotation Xrotation Yrotation
                  End Site
                  {
                    OFFSET 1.69225 -0.51767 -0.607171
                  }
                }
              }
            }
          }
        }
      }
    }
  }
  JOINT rButtock
  {
    OFFSET -8.77824 4.35084 1.2192
    CHANNELS 3 Zrotation Xrotation Yrotation
    JOINT rThigh
    {
      OFFSET 0 -1.70687 -2.19456
      CHANNELS 3 Zrotation Xrotation Yrotation
      JOINT rShin
      {
        OFFSET 0 -36.8199 0.73152
        CHANNELS 3 Zrotation Xrotation Yrotation
        JOINT rFoot
        {
          OFFSET 0.73152 -45.1104 -5.12064
          CHANNELS 3 Zrotation Xrotation Yrotation
          End Site
          {
            OFFSET -1.1221 -3.69964 12.103
          }
        }
      }
    }
  }
  JOINT lButtock
  {
    OFFSET 8.77824 4.35084 1.2192
    CHANNELS 3 Zrotation Xrotation Yrotation
    JOINT lThigh
    {
      OFFSET 0 -1.70687 -2.19456
      CHANNELS 3 Zrotation Xrotation Yrotation
      JOINT lShin
      {
        OFFSET 0 -36.8199 0.73152
        CHANNELS 3 Zrotation Xrotation Yrotation
        JOINT lFoot
        {
          OFFSET -0.73152 -45.1104 -5.12064
          CHANNELS 3 Zrotation Xrotation Yrotation
          End Site
          {
            OFFSET 1.1221 -3.69964 12.103
          }
        }
      }
    }
  }
}
MOTION
Frames:	6
Frame Time:	0.03333
0.0 0.0 0.0 0.0 0.0 0.0 0.0 0.0 0.0 0.0 0.0 0.0 0.0 0.0 0.0 0.0 0.0 0.0 0.0 0.0 0.0 0.0 0.0 0.0 0.0 0.0 0.0 0.0 0.0 0.0 0.0 0.0 0.0 0.0 0.0 0.0 0.0 0.0 0.0 0.0 0.0 0.0 0.0 0.0 0.0 0.0 0.0 0.0 0.0 0.0 0.0 0.0 0.0 0.0 0.0 0.0 0.0 0.0 0.0 0.0 0.0 0.0 0.0 0.0 0.0 0.0 0.0 0.0 0.0 0.0 0.0 0.0 0.0 0.0 0.0 0.0 0.0 0.0 0.0 0.0 0.0 0.0 0.0 0.0 0.0 0.0 0.0 0.0 0.0 0.0 0.0 0.0 0.0 0.0 0.0 0.0 0.0 0.0 0.0 0.0 0.0 0.0 0.0 0.0 0.0 0.0 0.0 0.0 0.0 0.0 0.0 0.0 0.0 0.0 0.0 0.0 0.0 0.0 0.0 0.0 0.0 0.0 0.0 0.0 0.0 0.0 0.0 0.0 0.0 0.0 0.0 0.0
0.0669 61.571 -0.031100000000000003 -179.932095 26.843218 179.125855 0.227427 -1.211745 -180.0 6.589483 -11.012632 -142.481225 9.615782 -11.601041 92.006981 -27.887519 -25.408236 -42.359633 161.482985 -6.227979 36.911244 79.031071 -11.829516 -14.318603 -79.385628 -51.149797 174.003147 -33.49932 76.780417 49.117251 -177.114261 32.086077 -30.959183 1.648089 22.159933 -58.489842 -165.232911 -0.519662 59.589064 140.038197 24.392049 -48.534106 -173.971321 25.552013 171.052864 -74.821241 -68.205641 -50.877488 158.09085 34.963774 -111.432906 16.131286 57.510561 11.924771 -87.81834 19.44051 -96.143527 -129.124732 -25.054177 -162.276828 41.561147 1.020811 -60.654652 -80.805148 -52.228063 -74.093925 70.317176 6.782857 -155.221345 -14.543399 1.063974 -10.044385 2.283604 0.083209 -160.323064 -22.606369 -35.90144 21.368708 91.164336 29.331146 -33.819093 86.881881 4.816538 -74.204327 51.287071 -27.50371 -17.427448 131.091334 -73.551178 -116.310079 -17.475339 -24.078752 -50.897148 6.913804 -0.124754 103.089778 64.28728 39.726489 117.083035 135.980675 11.924069 -142.480178 73.490012 48.817087 90.866276 155.857799 -9.888794 147.117063 -45.879768 -7.466591 -73.370972 8.291423 45.084045 87.884284 -5.588925 -0.135975 -81.911247 -67.008597 60.257225 80.103846 -53.556707 -7.231812 -82.508912 1.434947 52.513655 178.191842 5.969559 0.872295 105.853368 69.712536 53.859275 -83.386423
0.4817 61.0152 -0.5492 -0.851654 5.863606 2.76325 -9.270108 14.899677 2.026976 7.380167 -8.701744 1.138907 9.542104 20.044823 84.505465 -31.711037 9.180818 -117.572894 14.067287 -0.97001 -7.849812 7.420487 3.452363 49.852126 -154.882358 -13.310306 168.587666 -5.45823 10.828715 -17.407076 -160.792743 53.73525 -122.243076 -3.397159 18.745804 -0.68166 150.023986 -40.776637 78.017717 -31.660235 -6.595709 9.447691 -98.744608 42.359171 78.25236 -1.417796 -5.072538 3.568449 -127.452448 36.448063 106.131717 -17.223427 37.622633 41.123223 -77.684192 69.975828 90.897194 -166.5883 13.620156 172.39423 -19.711129 -31.631477 -8.510237 -174.827891 1.816438 -156.617847 152.903123 7.179568 -153.920363 67.236944 18.927511 -15.984962 -11.245786 5.660406 134.431877 162.927626 17.602133 -139.079787 -95.121798 -55.397794 -37.343983 79.186855 14.670777 -21.322286 158.165225 -16.919962 -129.743303 57.453723 53.854252 -43.526424 155.60727 12.818543 -155.279107 136.513072 -74.519775 175.085061 -2.719369 -0.353937 -2.171699 -42.068543 56.576466 37.547392 145.064083 7.809679 143.501619 -1.052972 -48.304996 8.819939 45.875891 16.434429 43.284004 -107.942307 -12.214999 -93.919282 -74.971055 39.460362 11.163391 -7.423837 -30.016042 76.523619 -0.070289 0.64521 6.217434 18.482753 -25.111692 99.006365 69.893906 7.039623 141.309439 -159.685981 15.321523 -153.681238
0.3844 59.6766 0.3785 -7.157516 7.776271 -0.024036 -0.404726 14.900377 -155.554547 0.320243 4.824129 148.927874 -4.115438 29.806883 159.453367 -23.392228 34.863033 169.545773 -10.260681 -7.120336 69.442393 4.064532 -1.01537 -28.041635 -150.857202 -5.526702 158.450718 -52.145053 -68.771946 -47.439726 -176.871017 -30.43877 -116.636426 -9.224738 23.496406 -0.724137 -8.236857 9.398796 -13.460179 -132.502414 -65.161865 115.543871 -140.521014 -19.715291 100.747127 60.038158 -23.871763 14.792666 -68.099677 52.322182 65.980496 3.235076 60.756966 31.34084 -49.16016 82.733817 72.892157 -106.472837 81.568751 88.311314 -132.410673 61.494894 -159.471851 -124.765897 12.516829 -102.075153 33.737245 -86.528594 49.901158 60.49492 -22.926957 84.118858 76.360961 28.299287 88.405728 171.360205 -60.007673 -168.968645 165.785554 -8.193767 -93.071746 13.860574 -67.996909 1.128353 179.717766 -62.317924 -100.933646 169.756094 -11.467451 -84.078885 150.765339 -32.450559 -151.193973 165.384351 -20.869638 -127.607854 124.497011 -0.546104 178.879704 130.474307 -21.291096 -173.87337 -3.114142 -46.958695 -11.584507 63.445868 -25.299242 20.030337 146.117647 83.360185 -0.0 171.171275 21.682268 3.120288 73.364385 66.507976 -162.077015 -1.215345 -44.786217 95.906414 11.204473 3.833256 11.774529 10.597602 -35.090333 -0.0 -31.490443 75.374246 119.921182 165.423392 -61.901534 73.929414
0.49119999999999997 59.8846 1.3306 -7.676772 18.995533 1.895136 -1.198477 9.819969 -173.006898 -7.212263 0.410771 157.886802 -19.685882 20.222961 -104.058295 39.203595 27.265988 62.242642 -6.677186 -2.461906 40.441893 -20.837207 2.165968 -11.740042 0.439259 -0.188297 10.213796 50.840775 -28.274299 24.367337 -7.519839 -19.126212 72.703718 0.459376 12.016764 -4.36998 -171.949318 -10.891669 99.186856 109.889357 -53.369628 73.221715 -155.369151 12.560706 82.312597 -167.458913 0.906666 51.102238 -14.973021 -84.957156 -47.661123 -44.432718 57.677263 36.87456 1.624485 -28.108825 0.314469 -141.582993 -35.249162 -149.346676 -145.696623 20.493702 -161.666551 -146.166285 -21.10894 -138.607873 3.337896 21.480457 3.637275 -76.024875 9.054433 -35.308291 -10.548578 48.174278 -90.834655 13.032132 -14.093659 -5.334236 97.188593 41.392245 -51.754895 -54.713113 -15.050819 -43.489419 107.770095 -77.442391 -155.644244 62.8126 13.181132 -69.998 -9.0814 -23.000391 4.663786 -39.960428 -77.749048 -18.543232 149.066266 -20.42766 165.106901 -153.083414 75.81111 150.889234 76.131317 -69.166459 90.417755 158.27318 37.254426 -147.778534 101.832372 72.770599 35.333257 179.4812 17.343511 0.144819 80.019764 52.93281 6.084889 -75.346155 77.565434 -3.120397 -87.244598 69.6749 -77.828883 176.944576 37.667199 -16.377427 -95.649074 76.313286 -170.965281 -46.693155 34.416796 -64.279102
0.07200000000000001 59.8749 2.1842 -5.906174 23.700385 2.72444 -2.618384 16.011908 -28.283371 11.419588 -1.925598 16.16972 -0.041334 31.290975 156.345733 -30.738854 57.039609 -166.580857 -14.393887 0.447233 -3.540625 -17.174231 -0.273548 1.811362 9.581588 -44.856943 2.572156 89.370476 86.623287 -49.393049 9.865043 79.189516 -127.063065 158.399702 -21.186145 127.550228 -6.711465 4.262239 1.835657 -8.263875 -20.253833 -11.513139 82.157117 -54.818718 79.228233 -176.328749 -13.862038 170.48627 -172.542613 -6.058083 144.796896 -15.058163 -59.842943 -34.298965 -74.812182 49.529462 92.946982 101.768342 69.249074 -74.391962 -60.084293 63.219648 112.784022 8.528288 -22.853619 -22.058566 27.049731 -64.96283 47.300141 126.215357 17.609703 137.571473 26.38223 -62.52011 -75.250658 5.051863 -44.3959 3.056619 2.376218 2.84709 1.763238 -14.250704 5.239157 39.908365 24.243089 -62.503301 140.408254 -70.882458 33.546746 -19.320019 12.357541 -40.282555 34.58511 -22.534836 7.263459 -20.02381 141.277017 22.773385 -161.211 -92.854529 -78.662067 -77.383158 124.201289 -17.181102 133.492643 62.763524 52.203591 -112.19722 -88.462077 31.682051 -50.064554 88.988401 -25.727682 -90.439167 -81.221872 -24.653045 28.71384 144.700809 12.007032 -50.449036 66.854477 42.380306 62.742033 -99.363823 -5.433167 -0.0 101.629156 45.388932 -5.462303 -66.861139 40.181791 -42.43432
